<svg width="23" height="21" viewBox="0 0 23 21" fill="none" xmlns="http://www.w3.org/2000/svg">
<path d="M7.93848 16.8466C7.93848 16.7606 7.85254 16.6747 7.72363 16.6747C7.59473 16.6747 7.50879 16.7606 7.50879 16.8466C7.50879 16.9325 7.59473 17.0184 7.72363 16.9755C7.85254 16.9755 7.93848 16.9325 7.93848 16.8466ZM6.60645 16.6317C6.60645 16.7177 6.69238 16.8466 6.82129 16.8466C6.90723 16.8895 7.03613 16.8466 7.0791 16.7606C7.0791 16.6747 7.03613 16.5887 6.90723 16.5458C6.77832 16.5028 6.64941 16.5458 6.60645 16.6317ZM8.54004 16.5887C8.41113 16.5887 8.3252 16.6747 8.3252 16.8036C8.3252 16.8895 8.4541 16.9325 8.58301 16.8895C8.71191 16.8466 8.79785 16.8036 8.75488 16.7177C8.75488 16.6317 8.62598 16.5458 8.54004 16.5887ZM11.333 0.0887451C5.40332 0.0887451 0.848633 4.64343 0.848633 10.5731C0.848633 15.3427 3.81348 19.4247 8.11035 20.8856C8.66895 20.9716 8.84082 20.6278 8.84082 20.37C8.84082 20.0692 8.84082 18.6083 8.84082 17.7059C8.84082 17.7059 5.83301 18.3505 5.18848 16.4169C5.18848 16.4169 4.71582 15.1708 4.02832 14.87C4.02832 14.87 3.04004 14.1825 4.07129 14.1825C4.07129 14.1825 5.14551 14.2684 5.74707 15.2997C6.69238 16.9755 8.23926 16.5028 8.88379 16.202C8.96973 15.5145 9.22754 15.0419 9.57129 14.7411C7.16504 14.4833 4.71582 14.1395 4.71582 10.0145C4.71582 8.8114 5.05957 8.25281 5.74707 7.47937C5.61816 7.17859 5.27441 6.0614 5.87598 4.5575C6.73535 4.29968 8.84082 5.71765 8.84082 5.71765C9.7002 5.45984 10.6025 5.3739 11.5049 5.3739C12.4502 5.3739 13.3525 5.45984 14.2119 5.71765C14.2119 5.71765 16.2744 4.25671 17.1768 4.5575C17.7783 6.0614 17.3916 7.17859 17.3057 7.47937C17.9932 8.25281 18.4229 8.8114 18.4229 10.0145C18.4229 14.1395 15.8877 14.4833 13.4814 14.7411C13.8682 15.0848 14.2119 15.7294 14.2119 16.7606C14.2119 18.1786 14.1689 19.9833 14.1689 20.327C14.1689 20.6278 14.3838 20.9716 14.9424 20.8427C19.2393 19.4247 22.1611 15.3427 22.1611 10.5731C22.1611 4.64343 17.3057 0.0887451 11.333 0.0887451ZM5.0166 14.913C4.93066 14.9559 4.97363 15.0848 5.0166 15.1708C5.10254 15.2137 5.18848 15.2567 5.27441 15.2137C5.31738 15.1708 5.31738 15.0419 5.23145 14.9559C5.14551 14.913 5.05957 14.87 5.0166 14.913ZM4.54395 14.5692C4.50098 14.6552 4.54395 14.6981 4.62988 14.7411C4.71582 14.7841 4.80176 14.7841 4.84473 14.6981C4.84473 14.6552 4.80176 14.6122 4.71582 14.5692C4.62988 14.5262 4.58691 14.5262 4.54395 14.5692ZM5.91895 16.1161C5.87598 16.1591 5.87598 16.288 6.00488 16.3739C6.09082 16.4598 6.21973 16.5028 6.2627 16.4169C6.30566 16.3739 6.30566 16.245 6.21973 16.1591C6.13379 16.0731 6.00488 16.0302 5.91895 16.1161ZM5.44629 15.4716C5.36035 15.5145 5.36035 15.6434 5.44629 15.7294C5.53223 15.8153 5.61816 15.8583 5.7041 15.8153C5.74707 15.7723 5.74707 15.6434 5.7041 15.5575C5.61816 15.4716 5.53223 15.4286 5.44629 15.4716Z" fill="#575757"/>
</svg>
