<svg width="128" height="110" viewBox="0 0 128 110" fill="none" xmlns="http://www.w3.org/2000/svg">
<g filter="url(#filter0_d)">
<path fill-rule="evenodd" clip-rule="evenodd" d="M10 34L118 34V43L10 43V34Z" fill="#D30404"/>
<path fill-rule="evenodd" clip-rule="evenodd" d="M40 74L40 2L49 2L49 74L40 74Z" fill="#D30404"/>
<path fill-rule="evenodd" clip-rule="evenodd" d="M25 63L25 9L34 9L34 63L25 63Z" fill="#D30404"/>
<path fill-rule="evenodd" clip-rule="evenodd" d="M10 54L10 19L19 19L19 54L10 54Z" fill="#D30404"/>
<path fill-rule="evenodd" clip-rule="evenodd" d="M79 74L79 2L88 2L88 74L79 74Z" fill="#D30404"/>
<path fill-rule="evenodd" clip-rule="evenodd" d="M94 63L94 9L103 9L103 63L94 63Z" fill="#D30404"/>
<path fill-rule="evenodd" clip-rule="evenodd" d="M109 54L109 19L118 19L118 54L109 54Z" fill="#D30404"/>
</g>
<path d="M15.0234 101.844C14.3906 102.602 13.4961 103.191 12.3398 103.613C11.1836 104.027 9.90234 104.234 8.49609 104.234C7.01953 104.234 5.72266 103.914 4.60547 103.273C3.49609 102.625 2.63672 101.688 2.02734 100.461C1.42578 99.2344 1.11719 97.793 1.10156 96.1367V94.9766C1.10156 93.2734 1.38672 91.8008 1.95703 90.5586C2.53516 89.3086 3.36328 88.3555 4.44141 87.6992C5.52734 87.0352 6.79688 86.7031 8.25 86.7031C10.2734 86.7031 11.8555 87.1875 12.9961 88.1562C14.1367 89.1172 14.8125 90.5195 15.0234 92.3633H11.6016C11.4453 91.3867 11.0977 90.6719 10.5586 90.2188C10.0273 89.7656 9.29297 89.5391 8.35547 89.5391C7.16016 89.5391 6.25 89.9883 5.625 90.8867C5 91.7852 4.68359 93.1211 4.67578 94.8945V95.9844C4.67578 97.7734 5.01562 99.125 5.69531 100.039C6.375 100.953 7.37109 101.41 8.68359 101.41C10.0039 101.41 10.9453 101.129 11.5078 100.566V97.625H8.30859V95.0352H15.0234V101.844ZM23.7656 94.625L27.3164 86.9375H31.1602L25.5586 97.8125V104H21.9844V97.8125L16.3828 86.9375H20.2383L23.7656 94.625ZM37.3125 86.9375L41.6953 99.3125L46.0547 86.9375H50.6719V104H47.1445V99.3359L47.4961 91.2852L42.8906 104H40.4766L35.8828 91.2969L36.2344 99.3359V104H32.7188V86.9375H37.3125ZM60.3867 100.496C60.3867 100.082 60.1797 99.7578 59.7656 99.5234C59.3594 99.2812 58.7031 99.0664 57.7969 98.8789C54.7812 98.2461 53.2734 96.9648 53.2734 95.0352C53.2734 93.9102 53.7383 92.9727 54.668 92.2227C55.6055 91.4648 56.8281 91.0859 58.3359 91.0859C59.9453 91.0859 61.2305 91.4648 62.1914 92.2227C63.1602 92.9805 63.6445 93.9648 63.6445 95.1758H60.2578C60.2578 94.6914 60.1016 94.293 59.7891 93.9805C59.4766 93.6602 58.9883 93.5 58.3242 93.5C57.7539 93.5 57.3125 93.6289 57 93.8867C56.6875 94.1445 56.5312 94.4727 56.5312 94.8711C56.5312 95.2461 56.707 95.5508 57.0586 95.7852C57.418 96.0117 58.0195 96.2109 58.8633 96.3828C59.707 96.5469 60.418 96.7344 60.9961 96.9453C62.7852 97.6016 63.6797 98.7383 63.6797 100.355C63.6797 101.512 63.1836 102.449 62.1914 103.168C61.1992 103.879 59.918 104.234 58.3477 104.234C57.2852 104.234 56.3398 104.047 55.5117 103.672C54.6914 103.289 54.0469 102.77 53.5781 102.113C53.1094 101.449 52.875 100.734 52.875 99.9688H56.0859C56.1172 100.57 56.3398 101.031 56.7539 101.352C57.168 101.672 57.7227 101.832 58.418 101.832C59.0664 101.832 59.5547 101.711 59.8828 101.469C60.2188 101.219 60.3867 100.895 60.3867 100.496ZM69.9258 88.2031V91.3203H72.0938V93.8047H69.9258V100.133C69.9258 100.602 70.0156 100.938 70.1953 101.141C70.375 101.344 70.7188 101.445 71.2266 101.445C71.6016 101.445 71.9336 101.418 72.2227 101.363V103.93C71.5586 104.133 70.875 104.234 70.1719 104.234C67.7969 104.234 66.5859 103.035 66.5391 100.637V93.8047H64.6875V91.3203H66.5391V88.2031H69.9258ZM81.3281 104C81.1719 103.695 81.0586 103.316 80.9883 102.863C80.168 103.777 79.1016 104.234 77.7891 104.234C76.5469 104.234 75.5156 103.875 74.6953 103.156C73.8828 102.438 73.4766 101.531 73.4766 100.438C73.4766 99.0938 73.9727 98.0625 74.9648 97.3438C75.9648 96.625 77.4062 96.2617 79.2891 96.2539H80.8477V95.5273C80.8477 94.9414 80.6953 94.4727 80.3906 94.1211C80.0938 93.7695 79.6211 93.5938 78.9727 93.5938C78.4023 93.5938 77.9531 93.7305 77.625 94.0039C77.3047 94.2773 77.1445 94.6523 77.1445 95.1289H73.7578C73.7578 94.3945 73.9844 93.7148 74.4375 93.0898C74.8906 92.4648 75.5312 91.9766 76.3594 91.625C77.1875 91.2656 78.1172 91.0859 79.1484 91.0859C80.7109 91.0859 81.9492 91.4805 82.8633 92.2695C83.7852 93.0508 84.2461 94.1523 84.2461 95.5742V101.07C84.2539 102.273 84.4219 103.184 84.75 103.801V104H81.3281ZM78.5273 101.645C79.0273 101.645 79.4883 101.535 79.9102 101.316C80.332 101.09 80.6445 100.789 80.8477 100.414V98.2344H79.582C77.8867 98.2344 76.9844 98.8203 76.875 99.9922L76.8633 100.191C76.8633 100.613 77.0117 100.961 77.3086 101.234C77.6055 101.508 78.0117 101.645 78.5273 101.645ZM90.9023 88.2031V91.3203H93.0703V93.8047H90.9023V100.133C90.9023 100.602 90.9922 100.938 91.1719 101.141C91.3516 101.344 91.6953 101.445 92.2031 101.445C92.5781 101.445 92.9102 101.418 93.1992 101.363V103.93C92.5352 104.133 91.8516 104.234 91.1484 104.234C88.7734 104.234 87.5625 103.035 87.5156 100.637V93.8047H85.6641V91.3203H87.5156V88.2031H90.9023ZM98.5312 104H95.1328V91.3203H98.5312V104ZM94.9336 88.0391C94.9336 87.5312 95.1016 87.1133 95.4375 86.7852C95.7812 86.457 96.2461 86.293 96.832 86.293C97.4102 86.293 97.8711 86.457 98.2148 86.7852C98.5586 87.1133 98.7305 87.5312 98.7305 88.0391C98.7305 88.5547 98.5547 88.9766 98.2031 89.3047C97.8594 89.6328 97.4023 89.7969 96.832 89.7969C96.2617 89.7969 95.8008 89.6328 95.4492 89.3047C95.1055 88.9766 94.9336 88.5547 94.9336 88.0391ZM100.805 97.543C100.805 96.2852 101.047 95.1641 101.531 94.1797C102.016 93.1953 102.711 92.4336 103.617 91.8945C104.531 91.3555 105.59 91.0859 106.793 91.0859C108.504 91.0859 109.898 91.6094 110.977 92.6562C112.062 93.7031 112.668 95.125 112.793 96.9219L112.816 97.7891C112.816 99.7344 112.273 101.297 111.188 102.477C110.102 103.648 108.645 104.234 106.816 104.234C104.988 104.234 103.527 103.648 102.434 102.477C101.348 101.305 100.805 99.7109 100.805 97.6953V97.543ZM104.191 97.7891C104.191 98.9922 104.418 99.9141 104.871 100.555C105.324 101.188 105.973 101.504 106.816 101.504C107.637 101.504 108.277 101.191 108.738 100.566C109.199 99.9336 109.43 98.9258 109.43 97.543C109.43 96.3633 109.199 95.4492 108.738 94.8008C108.277 94.1523 107.629 93.8281 106.793 93.8281C105.965 93.8281 105.324 94.1523 104.871 94.8008C104.418 95.4414 104.191 96.4375 104.191 97.7891ZM118.02 91.3203L118.125 92.7852C119.031 91.6523 120.246 91.0859 121.77 91.0859C123.113 91.0859 124.113 91.4805 124.77 92.2695C125.426 93.0586 125.762 94.2383 125.777 95.8086V104H122.391V95.8906C122.391 95.1719 122.234 94.6523 121.922 94.332C121.609 94.0039 121.09 93.8398 120.363 93.8398C119.41 93.8398 118.695 94.2461 118.219 95.0586V104H114.832V91.3203H118.02Z" fill="white"/>
<defs>
<filter id="filter0_d" x="9" y="0" width="116" height="80" filterUnits="userSpaceOnUse" color-interpolation-filters="sRGB">
<feFlood flood-opacity="0" result="BackgroundImageFix"/>
<feColorMatrix in="SourceAlpha" type="matrix" values="0 0 0 0 0 0 0 0 0 0 0 0 0 0 0 0 0 0 127 0"/>
<feOffset dx="3" dy="2"/>
<feGaussianBlur stdDeviation="2"/>
<feColorMatrix type="matrix" values="0 0 0 0 0 0 0 0 0 0 0 0 0 0 0 0 0 0 0.5 0"/>
<feBlend mode="normal" in2="BackgroundImageFix" result="effect1_dropShadow"/>
<feBlend mode="normal" in="SourceGraphic" in2="effect1_dropShadow" result="shape"/>
</filter>
</defs>
</svg>
