<svg width="116" height="80" viewBox="0 0 116 80" fill="none" xmlns="http://www.w3.org/2000/svg">
<g filter="url(#filter0_d)">
<path fill-rule="evenodd" clip-rule="evenodd" d="M1 34L109 34V43L1 43V34Z" fill="#D30404"/>
<path fill-rule="evenodd" clip-rule="evenodd" d="M31 74L31 2L40 2L40 74L31 74Z" fill="#D30404"/>
<path fill-rule="evenodd" clip-rule="evenodd" d="M16 63L16 9L25 9L25 63L16 63Z" fill="#D30404"/>
<path fill-rule="evenodd" clip-rule="evenodd" d="M1 54L1 19L10 19L10 54L1 54Z" fill="#D30404"/>
<path fill-rule="evenodd" clip-rule="evenodd" d="M70 74L70 2L79 2L79 74L70 74Z" fill="#D30404"/>
<path fill-rule="evenodd" clip-rule="evenodd" d="M85 63L85 9L94 9L94 63L85 63Z" fill="#D30404"/>
<path fill-rule="evenodd" clip-rule="evenodd" d="M100 54L100 19L109 19L109 54L100 54Z" fill="#D30404"/>
</g>
<defs>
<filter id="filter0_d" x="0" y="0" width="116" height="80" filterUnits="userSpaceOnUse" color-interpolation-filters="sRGB">
<feFlood flood-opacity="0" result="BackgroundImageFix"/>
<feColorMatrix in="SourceAlpha" type="matrix" values="0 0 0 0 0 0 0 0 0 0 0 0 0 0 0 0 0 0 127 0"/>
<feOffset dx="3" dy="2"/>
<feGaussianBlur stdDeviation="2"/>
<feColorMatrix type="matrix" values="0 0 0 0 0 0 0 0 0 0 0 0 0 0 0 0 0 0 0.5 0"/>
<feBlend mode="normal" in2="BackgroundImageFix" result="effect1_dropShadow"/>
<feBlend mode="normal" in="SourceGraphic" in2="effect1_dropShadow" result="shape"/>
</filter>
</defs>
</svg>
